<svg width="64" height="64" viewBox="0 0 64 64" fill="none" xmlns="http://www.w3.org/2000/svg">
  <circle cx="32" cy="32" r="32" fill="#EA3A60"/>
  <path d="M43.947 42.778l-5.302-2.001c-.492-.187-1.056-.041-1.308.375l-2.383 3.857c-4.696-2.475-8.54-6.303-11.27-10.998l3.89-2.419c.425-.264.588-.821.401-1.313l-1.97-5.302c-.174-.47-.675-.744-1.188-.64L17.45 23.53c-.475.102-.83.492-.855.978-.36 7.038 2.199 13.693 7.008 18.495 4.797 4.81 11.464 7.371 18.488 7.02.487-.024.875-.38.98-.855l1.93-5.262c.105-.523-.17-1.023-.64-1.196z" fill="#fff"/>
</svg>